# xmcd
#
# Track frame offsets: 
#        150
#        3227
#        15594
#        26593
#        49967
#        53234
#        57035
#        57608
#        79278
#        88192
#        106105
#        123030
#        128139
#        146472
#        160849
#        162599
#        176783
#        179670
#        198144
#        208453
#        209284
#        210907
#        226928
#        229427
#        248757
#        254646
#        258064
#        259963
#        263116
#        265336
#        280453
#        286181
#        301019
#
# Disc length: 4301 seconds
#
# Revision: 1
# Processed by: cddbd v1.5.2PL0 Copyright (c) Steve Scherf et al.
# Submitted via: ExactAudioCopy v0.99pb5
#
DISCID=e310cb21
DTITLE=Lucinda Williams - NY [5 Lucinda Williams]
DYEAR=2007
DGENRE=Folk/Rock
TTITLE0="Hey everybody"
TTITLE1=I Just Wanted To See You So Bad
TTITLE2="To be able to do"
TTITLE3=The Night's Too Long
TTITLE4="These songs were written"
TTITLE5=Abandoned [take 1]
TTITLE6="Damn"
TTITLE7=Abandoned
TTITLE8="Feeling a little melancholy"
TTITLE9=Big Red Sun Blues
TTITLE10=Like A Rose
TTITLE11="We've been documenting"
TTITLE12=Changed the Locks
TTITLE13="By the way, that was one"
TTITLE14=Passionate Kisses [take 1]
TTITLE15=Passionate Kisses
TTITLE16="My mind goes blank"
TTITLE17=Am I Too Blue
TTITLE18="Y'all are a great audience"
TTITLE19=Crescent City [take 1]
TTITLE20="You know, they say"
TTITLE21=Crescent City
TTITLE22="This is a song that a band"
TTITLE23=Side of the Road
TTITLE24="I'm real proud of"
TTITLE25=Price To Pay [take 1]
TTITLE26="Wait"
TTITLE27=Price To Pay [take 2]
TTITLE28="Give me a minute"
TTITLE29=Price To Pay
TTITLE30="Momma come back out"
TTITLE31="Let me introduce these guys"
TTITLE32=I Asked For Water (He Gave Me Gasoline)
EXTD=
EXTT0=
EXTT1=
EXTT2=
EXTT3=
EXTT4=
EXTT5=
EXTT6=
EXTT7=
EXTT8=
EXTT9=
EXTT10=
EXTT11=
EXTT12=
EXTT13=
EXTT14=
EXTT15=
EXTT16=
EXTT17=
EXTT18=
EXTT19=
EXTT20=
EXTT21=
EXTT22=
EXTT23=
EXTT24=
EXTT25=
EXTT26=
EXTT27=
EXTT28=
EXTT29=
EXTT30=
EXTT31=
EXTT32=
PLAYORDER=
